<svg xmlns="http://www.w3.org/2000/svg" xml:space="preserve" width="2000" height="563" data-id="lg_mc42NLRfFjOvKwUZqb" data-version="1"><g data-padding="20"><g transform="translate(391.824 380.899)scale(.94048)"><linearGradient id="a" x1="0" x2="1" y1="0" y2="0" gradientUnits="objectBoundingBox"><stop offset="0%" stop-color="#ffa62e"/><stop offset="100%" stop-color="#f71b3d"/></linearGradient><path fill="url(#a)" stroke="transparent" stroke-width="1.36" d="M1031.938 170.399q38.63-36.25 69.16-60.58-24.8-1.43-74.41-6.2 3.81 36.25 5.25 66.78m165.51-122.11q6.21 4.29 6.21 11.45 0 17.17-28.86 44.59-28.86 27.43-81.81 69.41-27.66 21.94-41.74 33.87-14.07 11.92-17.41 18.12-2.38 4.29-3.34 10.02-.95 5.72-.95 12.16t-.48 10.73q-3.34 23.38-7.63 41.03t-9.78 31q-5.48 13.36-15.02 23.85-6.2 7.16-14.31 13.12t-15.27 5.96q-16.21 0-16.21-26.23 0-8.59 1.66-19.8 1.67-11.21 2.15-14.55l2.39-15.26q-10.5 8.58-19.08 8.58-5.73 0-8.59-3.81-2.86-3.82-2.86-10.5 0-9.54 5.25-19.55 4.29-8.59 15.26-20.51 8.59-10.02 12.16-15.51 3.58-5.48 5.01-12.16 3.82-24.33 3.82-46.75 0-18.12-1.91-31.95-1.43-11.45-4.29-22.42l-2.87-14.55q-2.38-12.17-2.38-22.66 0-50.56 57.24-50.56 6.2 0 18.6.95 30.53 2.86 72.98 3.82l14.79.48 34.82-.48q30.05 0 42.45 8.11" transform="translate(-405.31 -386.52)"/><rect width="281" height="539.01" x="512.028" y="-387.201" fill="none" rx="0" ry="0" transform="translate(-5.49)"/></g><g transform="rotate(-90 491.855 105.542)scale(2.60512)"><linearGradient id="b" x1="0" x2="1" y1="0" y2="0" gradientUnits="objectBoundingBox"><stop offset="0%" stop-color="#ffa62e"/><stop offset="100%" stop-color="#f71b3d"/></linearGradient><rect width="45.73" height="121.3" x="19.631" y="174.92" fill="#fff" stroke="url(#b)" stroke-width="2" rx="22" ry="22"/></g><g transform="translate(385.833 599.466)scale(.94048)"><linearGradient id="c" x1="0" x2="1" y1="0" y2="0" gradientUnits="objectBoundingBox"><stop offset="0%" stop-color="#ffa62e"/><stop offset="100%" stop-color="#f71b3d"/></linearGradient><path fill="url(#c)" stroke="transparent" d="M954.528 511.799q21.45-1.19 33.26-2.64-1.12 3.43-1.71 7.26-.6 3.82-.6 6.93h-47.19l-.06-1.39q0-6.47 3.79-11.22 3.8-4.75 10.6-8.78 1.98-1.19 6.2-3.03 5.48-2.38 8.45-4.19 2.97-1.82 2.97-3.6 0-2.25-1.85-3.57t-5.74-1.32q-4.29 0-6.5 2.18t-2.21 5.55q0 1.05.19 2.17-8.31-1.05-16.17-1.45 0-5.61 2.94-10.13t8.84-7.16q5.91-2.64 14.49-2.64 7.86 0 13.1 2.15 5.25 2.14 7.72 5.41 2.48 3.26 2.48 6.7 0 3.96-1.75 6.79-1.75 2.84-5.02 5.05-3.26 2.21-8.74 4.79-.79.39-2.57.89-1.79.49-2.25.63-4.68 1.38-7.46 2.31-2.77.92-5.21 2.31m66.2 12.21q-14.19 0-20.92-6.54-6.74-6.53-6.74-18.15 0-11.55 6.77-18.05 6.76-6.5 20.89-6.5 14.12 0 20.85 6.5 6.74 6.5 6.74 18.05 0 11.62-6.74 18.15-6.73 6.54-20.85 6.54m.06-11.55q6.08 0 8.85-3.73t2.77-9.41q0-5.61-2.77-9.34t-8.85-3.73q-6.27 0-9.07 3.73-2.81 3.73-2.81 9.34t2.81 9.37q2.8 3.77 9.07 3.77m49.37-.66q21.45-1.19 33.27-2.64-1.13 3.43-1.72 7.26-.59 3.82-.59 6.93h-47.19l-.07-1.39q0-6.47 3.79-11.22 3.8-4.75 10.6-8.78 1.98-1.19 6.2-3.03 5.48-2.38 8.45-4.19 2.97-1.82 2.97-3.6 0-2.25-1.85-3.57t-5.74-1.32q-4.29 0-6.5 2.18t-2.21 5.55q0 1.05.2 2.17-8.32-1.05-16.17-1.45 0-5.61 2.93-10.13 2.94-4.52 8.85-7.16 5.9-2.64 14.48-2.64 7.86 0 13.1 2.15 5.25 2.14 7.73 5.41 2.47 3.26 2.47 6.7 0 3.96-1.75 6.79-1.75 2.84-5.01 5.05-3.27 2.21-8.75 4.79-.79.39-2.57.89l-2.25.63q-4.68 1.38-7.45 2.31-2.78.92-5.22 2.31" transform="translate(-399.13 -619.09)"/><path fill="url(#c)" stroke="transparent" d="M1155.428 502.559h8.98v12.4h-8.98v8.39h-15.77q.26-2.78.4-8.39h-31.35v-13.33q15.37-11.81 27.45-26.2h19.27Zm-15.24 0 .2-14.06q-4.56 4.68-7.86 7.82-3.3 3.13-7.46 6.24Z" transform="translate(-399.12 -619.09)"/><rect width="233.23" height="74.58" x="535.918" y="-154.991" fill="none" rx="0" ry="0"/></g><path fill="transparent" stroke="transparent" d="M832 0h336v563H832z"/></g></svg>